<?xml version="1.0" encoding="utf-8"?>
<!-- Generator: Adobe Illustrator 21.0.2, SVG Export Plug-In . SVG Version: 6.00 Build 0)  -->
<svg version="1.1" id="Layer_1" xmlns="http://www.w3.org/2000/svg" xmlns:xlink="http://www.w3.org/1999/xlink" x="0px" y="0px"
	 viewBox="0 0 612 792" style="enable-background:new 0 0 612 792;" xml:space="preserve">
<style type="text/css">
	.st0{fill:#F07622;}
</style>
<g>
	<path class="st0" d="M288.9,460.9c-0.1,0.6-0.2,1.2-0.3,1.8c-0.7,4.3-1.4,8.6-2.2,12.9c-0.1,0.8-0.2,1.5-0.4,2.3
		c-0.1,0.3-0.1,0.5-0.3,0.8c-3.5,5.9-7.1,11.9-10.7,17.8c-0.1,0.1-0.1,0.2-0.2,0.3c-0.1,0.2-0.3,0.2-0.5,0.1
		c-0.2-0.1-0.3-0.3-0.3-0.5c0-0.2,0.1-0.3,0.1-0.5c1.3-5.5,2.6-11.1,4-16.6c0.1-0.4,0.1-0.9,0-1.3c-0.6-3.9-1.3-7.8-1.9-11.6
		c0-0.2-0.1-0.3-0.1-0.5c-0.3,0.2-0.5,0.4-0.7,0.6c-6.7,5.3-13.3,10.6-20,15.9c-0.5,0.4-1,0.5-1.6,0.5c-4.5-0.3-9.1-0.6-13.6-0.9
		c-2.8-0.2-5.5-0.4-8.3-0.5c-0.4,0-0.7-0.1-1-0.4c-5.5-4.4-11-8.7-16.5-13.1c-0.2-0.2-0.4-0.4-0.4-0.7c-1.2-6-2.3-11.9-3.5-17.9
		c-0.3-1.5-0.6-3-0.9-4.5c-0.1-0.5,0-0.9,0.4-1.3c2.3-2.4,4.7-4.8,7-7.2c3.7-3.7,7.3-7.5,11-11.2c1-1,1.8-2.1,2.6-3.2
		c1.3-1.5,2.5-3.1,3.8-4.6c0.1-0.1,0.2-0.3,0.4-0.5c-0.1-0.1-0.2-0.2-0.3-0.3c-2-1.7-3.9-3.4-5.9-5.1c-0.3-0.3-0.5-0.5-0.5-0.9
		c-0.5-3.5-1-7-1.5-10.4c0-0.3,0-0.5,0.2-0.7c0.3-0.2,0.5-0.1,0.7,0.1c2.2,1.2,4.4,2.4,6.6,3.6c2.4,1.3,4.9,2.7,7.3,4
		c0.4,0.2,0.6,0.5,0.8,0.9c1.4,3.9,2.8,7.8,4.2,11.7c0.2,0.4,0.1,0.8-0.1,1.2c-2.2,4.7-4.4,9.3-6.5,14c-0.2,0.4-0.5,0.8-0.8,1.2
		c-4,4.3-8,8.6-12,12.9c-0.3,0.3-0.4,0.6-0.3,1.1c0.4,2.6,0.8,5.2,1.2,7.9c0,0.1,0,0.2,0.1,0.4c0.8,0.2,1.6,0.4,2.4,0.5
		c3.6,0.7,7.2,1.5,10.9,2.3c0.4,0.1,0.7,0,1-0.3c3.6-3.7,7.2-7.4,10.7-11.1c0.9-0.9,1.8-1.8,2.7-2.8c0.3-0.3,0.4-0.6,0.5-0.9
		c1.4-5.4,2.8-10.7,4.2-16.1c0.5-1.9,1-3.9,1.5-5.8c0.1-0.2,0.1-0.5,0.1-0.8c0-3.7-0.1-7.4-0.2-11.2c-0.1-4.5-0.2-8.9-0.2-13.4
		c0-1.9-0.1-3.9-0.1-5.8c0-0.9,0.2-1.8,0.4-2.7c0.7-3.8,1.3-7.5,2-11.3c0.8-4.3,1.5-8.5,2.3-12.8c0.3-1.5,0.5-3,0.8-4.5
		c0.1-0.5,0.2-0.8,0.6-1.1c3.8-3.7,7.6-7.4,11.4-11.1c2.6-2.6,5.3-5.1,7.9-7.7c0.3-0.3,0.6-0.5,1-0.5c1.7-0.2,3.4-0.5,5-0.7
		c2.5-0.4,5-0.7,7.5-1.1c0.3,0,0.5-0.2,0.7-0.4c2.9-2.5,5.8-5.1,8.7-7.6c3.9-3.4,7.8-6.9,11.7-10.3c0.7-0.6,1.5-1.1,2.2-1.6
		c5.9-4.1,11.8-8.2,17.6-12.3c0.3-0.2,0.6-0.3,1-0.4c4.1-0.7,8.1-1.5,12.2-2.2c0.5-0.1,0.8-0.3,1.2-0.6c2.7-3,5.4-6,8.1-9
		c0.1-0.1,0.2-0.2,0.3-0.4c0.2-0.2,0.5-0.3,0.8-0.1c0.1,0.1,0.2,0.2,0.3,0.2c8.2,5.8,16.5,11.6,24.7,17.4c0.4,0.3,0.6,0.6,0.7,1
		c2.7,10,5.5,20,8.2,30c0.1,0.4,0.1,0.8,0.1,1.2c-1,4.7-1.9,9.5-2.9,14.2c-1.3,6.3-2.5,12.7-3.8,19c-0.3,1.4-0.3,1.4-1.4,2.4
		c-4.3,3.5-8.5,7-12.8,10.5c-0.4,0.3-0.7,0.7-0.8,1.3c-1.4,5.9-2.8,11.8-4.2,17.7c-0.1,0.4-0.3,0.7-0.5,1c-3.1,3.5-6.2,7-9.2,10.5
		c-1.7,1.9-3.4,3.9-5.2,5.8c-0.2,0.2-0.5,0.5-0.8,0.6c-3.6,2-7.2,4.1-10.8,6.1c-0.5,0.3-0.8,0.2-1.2-0.1c-1.8-1.3-3.6-2.5-5.4-3.7
		c-0.4-0.2-0.6-0.3-1-0.1c-5,3-9.9,5.9-14.9,8.9c-0.3,0.2-0.6,0.4-0.8,0.6c-9.3,7.1-18.7,14.2-28,21.2c-0.4,0.3-0.8,0.5-1.3,0.4
		c-1.5,0-3,0-4.6,0C289.2,460.9,289.1,460.9,288.9,460.9z M338.9,428.7c-4.1-9.9-8.2-19.7-12.3-29.6c0,0-0.1,0-0.1,0
		c0,0.2,0,0.5,0,0.7c0,11.5,0,23,0,34.4c0,0.2,0,0.4,0,0.6c-0.1,0.4-0.3,0.6-0.7,0.4c-0.4-0.2-0.9-0.3-1.3-0.5
		c-6.4-2.5-12.8-5-19.3-7.5c-0.2-0.1-0.4-0.1-0.6-0.2c-2.3,10-4.5,19.9-6.7,29.7c0,0.1,0,0.2,0,0.3c0,0,0,0,0,0.1c0,0,0,0,0.1,0
		c0.1-0.1,0.3-0.2,0.4-0.3c7.4-5.6,14.8-11.3,22.3-16.9c1.1-0.8,2.2-1.7,3.3-2.4c4.8-2.9,9.6-5.7,14.4-8.6
		C338.5,428.9,338.6,428.8,338.9,428.7z M304.9,424.4c0,0,0.1,0,0.1,0c6.8-9.3,13.5-18.7,20.3-28c-0.5-0.7-20.9-21.9-21.2-22.1
		c0.1,0.9,0.1,1.8,0.2,2.7c0.3,2.8,0.5,5.5,0.8,8.3c0.2,2,0.3,3.9,0.5,5.9c0.3,2.8,0.5,5.7,0.8,8.5c0.1,1.2,0.2,2.3,0.3,3.5
		c0.1,0.8,0.2,1.6,0.1,2.4c-0.2,2.4-0.5,4.8-0.8,7.3c-0.4,3.4-0.7,6.8-1.1,10.2C304.9,423.5,304.9,424,304.9,424.4z M358.2,374.2
		c-11-7.6-21.9-15.2-32.8-22.7c0,0-0.1,0.1-0.1,0.1c3,11.4,5.9,22.7,8.9,34.1C342.3,381.9,350.2,378.1,358.2,374.2z M357.5,372.7
		c0,0,0.1,0,0.1-0.1c-1.7-10.7-3.4-21.3-5.1-32c-0.1,0-0.2,0-0.3,0c-8.8,3.3-17.7,6.5-26.5,9.8c0,0,0,0,0,0c0,0,0,0,0,0.1
		C336.3,358,346.9,365.3,357.5,372.7z M357.5,426.1c4.8-5.4,9.5-10.7,14.2-16.1c-5.3-3.2-10.5-6.4-15.8-9.6
		c-6.8-4.1-13.6-8.3-20.4-12.4c0,0,0,0-0.1,0c0,0,0,0-0.1,0.1C342.8,400.7,350.1,413.3,357.5,426.1z M335.7,314.6c0,0-0.1,0-0.1,0
		c-3.4,11.6-6.8,23.3-10.3,35c9.1-3.4,18-6.7,27-10C346.7,331.3,341.2,322.9,335.7,314.6z M356.8,426.7
		c-7.3-12.7-14.6-25.2-21.9-37.8c-0.1,0.1-0.1,0.2-0.1,0.3c0.2,1.4,0.4,2.8,0.6,4.3c0.3,2,0.5,4,0.8,5.9c0.3,2.7,0.7,5.3,1,8
		c0.3,2,0.5,3.9,0.7,5.9c0.3,2.6,0.7,5.3,1,7.9c0.3,2.3,0.6,4.6,0.9,6.9c0,0.3,0.2,0.6,0.5,0.8c1.8,1.2,3.5,2.4,5.2,3.6
		c0.1,0.1,0.3,0.2,0.5,0.3C349.6,430.8,353.2,428.8,356.8,426.7z M391.1,377.8c0.1-0.2,0.1-0.2,0.1-0.3c2.2-10.9,4.3-21.8,6.5-32.6
		c0,0,0,0,0-0.1c0,0,0,0-0.1-0.1c-8.3,4.1-16.6,8.1-24.9,12.2C378.8,364,385,370.9,391.1,377.8z M334.7,314.1
		c-0.7-0.3-1.3-0.2-2,0.2c-3.3,2.4-6.7,4.7-10,7c-0.3,0.2-0.6,0.4-0.9,0.7c-4,3.5-7.9,7-11.9,10.5c-0.1,0.1-0.2,0.2-0.4,0.4
		c4.9,5.5,9.8,10.9,14.8,16.5C327.8,337.6,331.3,325.9,334.7,314.1z M304.9,426.2c6.8,2.7,13.6,5.3,20.3,7.9c0.1,0,0.1,0,0.2,0
		c0-12,0-24,0-36c0,0-0.1,0-0.1-0.1C318.6,407.4,311.8,416.8,304.9,426.2z M266,377.5c1,1,22.5,17.4,22.9,17.6
		c4.5-7.2,9-14.3,13.6-21.6c-0.8,0.1-1.5,0.1-2.2,0.2c-3.1,0.3-6.1,0.7-9.2,1c-2.4,0.3-4.7,0.5-7.1,0.8c-3.1,0.3-6.1,0.7-9.2,1
		c-2.4,0.3-4.8,0.5-7.1,0.8C267.1,377.4,266.6,377.4,266,377.5z M376.4,391.3c-6.7-0.7-13.4-1.4-20.1-2.1c-6.7-0.7-13.3-1.4-20-2.1
		c0,0,0,0.1,0,0.1c11.9,7.3,23.9,14.6,35.9,21.9C373.6,403.2,375,397.3,376.4,391.3z M255,481.3c0.1-0.1,0.2-0.1,0.3-0.1
		c6.8-5.4,13.6-10.8,20.5-16.3c-6.3-5.7-12.5-11.3-18.8-16.9c0,0.2,0,0.4-0.1,0.5c0,0.8-0.1,1.7-0.1,2.5c-0.1,1.7-0.2,3.4-0.3,5.1
		c-0.1,1.1-0.1,2.3-0.2,3.4c-0.1,1.7-0.2,3.3-0.3,5c-0.1,1.2-0.1,2.3-0.2,3.5c-0.1,1.7-0.2,3.4-0.3,5.1c-0.1,1.2-0.1,2.3-0.2,3.5
		C255.2,478.1,255.1,479.6,255,481.3z M364.7,295.7c-1.7,7.3-3.4,14.4-5.1,21.5c0.1,0,0.1,0.1,0.1,0.1c0.1,0,0.2,0,0.2,0
		c9.5-1.5,19-3.1,28.5-4.6c0,0,0,0,0,0c0,0,0,0,0-0.1C380.7,306.9,372.7,301.3,364.7,295.7z M302.5,372.5c-4.6-5.1-9.1-10-13.6-15
		c-7.5,6.3-15,12.5-22.5,18.8c0,0,0,0,0,0.1c0,0,0,0,0,0.1c0.3,0,0.6,0,0.9-0.1c1.3-0.1,2.7-0.3,4-0.5c1.9-0.2,3.9-0.4,5.8-0.6
		c2.8-0.3,5.6-0.6,8.3-0.9c1.9-0.2,3.9-0.4,5.8-0.6c2.8-0.3,5.7-0.6,8.5-0.9C300.7,372.7,301.5,372.6,302.5,372.5z M319.6,374.3
		c1.5-7.8,2.9-15.5,4.4-23.3c-0.2,0-0.3,0-0.3,0.1c-3.3,0.7-6.6,1.4-9.9,2.1c-0.4,0.1-0.6,0.3-0.7,0.6c-2.6,5.5-5.2,11-7.8,16.5
		c-0.3,0.7-0.7,1.4-1.1,2.2C309.3,373.1,314.4,373.7,319.6,374.3z M372,357.7c-0.6,0.5-12,15.9-12.1,16.4
		c10.1,1.4,20.1,2.8,30.1,4.2c0,0,0-0.1,0.1-0.1C384.1,371.3,378.1,364.5,372,357.7z M275.2,410c4.4-4.7,8.7-9.4,13.1-14
		c-7.6-5.8-15-11.6-22.5-17.4c0,0-0.1,0.1-0.1,0.1C268.8,389.1,271.9,399.5,275.2,410z M375.3,390.3c0,0,0-0.1,0.1-0.1
		c-5.5-5.1-11-10.1-16.6-15.2c-7.7,3.7-15.3,7.4-22.9,11.1c0,0,0,0,0,0.1c0,0,0,0,0,0.1C349.1,387.5,362.2,388.9,375.3,390.3z
		 M312.3,353.2c-0.9-0.5-23.3-10.1-23.8-10.2c4.9,9.6,9.9,19.1,14.9,28.8C306.4,365.5,309.3,359.4,312.3,353.2z M371.6,356
		c0.4-1,6-22.4,6-22.9c-7.9,2.3-15.8,4.6-23.8,7C359.8,345.4,365.7,350.7,371.6,356z M389.6,313.4c-0.7,0.1-1.3,0.2-1.9,0.3
		c-0.4,0-0.5,0.2-0.7,0.5c-2.6,5.8-5.2,11.6-7.8,17.4c-0.1,0.2-0.1,0.4-0.2,0.6c6.2,3.6,12.3,7.1,18.5,10.6c0,0,0.1,0,0.1-0.1
		C395,333,392.3,323.2,389.6,313.4z M371.3,357c-5.7-5.1-11.3-10.2-17-15.2c-0.2-0.1-0.3-0.3-0.5-0.4c0,0,0,0-0.1,0c0,0,0,0-0.1,0
		c1.7,10.7,3.4,21.5,5.1,32.2c0,0,0.1,0,0.1,0C363,368.1,367.2,362.6,371.3,357z M397.5,343.9c-6.3-3.6-12.5-7.2-18.6-10.7
		c-0.1,0.1-0.1,0.1-0.1,0.2c-2,7.5-4,15-6,22.5c0,0,0,0,0,0c0,0,0,0,0.1,0.1C381,351.9,389.2,347.9,397.5,343.9z M336.8,314.5
		c0.1,0.2,0.1,0.3,0.1,0.3c5.2,7.9,10.5,15.9,15.7,23.8c0,0,0,0,0.1,0c0,0,0,0,0.1,0c0-0.1,0.1-0.3,0.2-0.5
		c1.8-6.5,3.5-13.1,5.3-19.6c0,0,0-0.1,0-0.1c0,0,0,0,0-0.1s0,0-0.1-0.1C351.1,317,344,315.7,336.8,314.5z M289.6,395.7
		c0.9,0.7,15.8,8.4,16.2,8.5c0-0.2,0-0.4,0-0.6c-0.2-2-0.4-4-0.6-6c-0.2-2-0.3-4.1-0.5-6.1c-0.3-3.2-0.6-6.4-0.9-9.5
		c-0.2-2.4-0.4-4.8-0.6-7.2c0-0.1-0.1-0.2-0.1-0.4C298.5,381.6,294.1,388.6,289.6,395.7z M377.4,332.2c-6.1-4.6-12.1-9-18.2-13.5
		c-0.5,1.8-1,3.4-1.4,5.1c-0.5,1.7-0.9,3.4-1.4,5.1c-0.5,1.7-0.9,3.4-1.4,5.1c-0.5,1.7-1,3.4-1.4,5.2
		C361.6,336.9,369.4,334.6,377.4,332.2z M334.7,313c0,0,0,0.1,0,0.1c0.1,0,0.2,0,0.2,0c0.5-0.2,0.5-0.2,0.9,0.1
		c0.1,0.1,0.3,0.2,0.5,0.2c3.1,0.6,6.3,1.1,9.4,1.7c4,0.7,8,1.4,12.1,2.1c0.2,0,0.5,0,0.7,0.1c1.6-6.8,3.2-13.5,4.8-20.1
		c0-0.1,0-0.2,0-0.3c0,0,0,0,0-0.1c0,0,0,0-0.1,0c0,0,0,0.1-0.1,0.2c-2.3,2.6-4.6,5.1-6.9,7.7c-0.4,0.5-0.9,0.7-1.5,0.8
		c-4.1,0.7-8.2,1.5-12.2,2.3c-0.3,0-0.5,0.2-0.8,0.3c-2.2,1.5-4.5,3.1-6.7,4.7C335,312.8,334.9,312.9,334.7,313z M378.3,331.7
		c2.6-5.9,5.2-11.7,7.9-17.6c-0.6,0-25.5,3.9-25.9,4.2C366.2,322.7,372.2,327.2,378.3,331.7z M242.5,462c3.8,6.2,7.5,12.3,11.2,18.4
		c0.1,0.1,0.1,0.2,0.2,0.2c0,0,0,0,0.1,0c0,0,0,0,0.1,0c0-0.1,0-0.2,0-0.3c0.1-1.1,0.1-2.3,0.2-3.4c0.1-1.7,0.2-3.3,0.3-5
		c0.1-1.2,0.1-2.3,0.2-3.5c0.1-1.7,0.2-3.3,0.3-5c0.1-1.2,0.1-2.3,0.2-3.5c0.1-1.7,0.2-3.3,0.3-5c0.1-1.3,0.2-2.6,0.2-3.8
		c0-0.8,0.1-1.6,0.1-2.4c0-0.1,0-0.3,0-0.5C251.4,452.8,247,457.4,242.5,462z M295.9,458.7c-12.6-3.6-25-7.2-37.4-10.6
		c0.1,0.1,0.2,0.2,0.3,0.3c1.8,1.6,3.7,3.3,5.5,4.9c4,3.6,7.9,7.1,11.9,10.7c0.4,0.3,0.7,0.4,1.1,0.2c3.5-1.4,7.1-2.7,10.7-4
		c0.3-0.1,0.7-0.2,1-0.2c1.7,0,3.3,0,5,0c0.2,0,0.4,0,0.6-0.1C294.9,459.5,295.3,459.1,295.9,458.7z M295.2,457.5c0,0,0-0.1,0.1-0.1
		c-0.8-0.8-1.5-1.6-2.3-2.4c-3.1-3.2-6.1-6.5-9.2-9.7c-0.3-0.3-0.7-0.5-1.1-0.5c-7.8,0-15.6,0-23.3,0c-0.1,0-0.3,0-0.4,0
		c-0.1,0-0.2,0-0.3,0.1c-0.4,0.5-0.9,1.1-1.3,1.8C270,450.3,282.6,453.9,295.2,457.5z M253.5,481.9c-0.1-0.3-0.2-0.4-0.3-0.5
		c-3.7-6.1-7.5-12.2-11.2-18.4c0,0,0,0-0.1,0c0,0,0,0-0.1,0c-3.2,5.8-6.4,11.6-9.7,17.5C239.4,480.9,246.4,481.4,253.5,481.9z
		 M390.2,379.3c0,0,0-0.1,0-0.1c-9.9-1.4-19.7-2.7-29.6-4.1c0,0,0,0.1-0.1,0.1c5.5,5,10.9,10,16.4,15.1
		C381.4,386.6,385.8,383,390.2,379.3z M260.6,443.8c0.2,0,0.3,0,0.5,0c7.2,0,14.4,0,21.5,0c0.4,0,0.6-0.2,0.8-0.5
		c0.9-1.7,1.8-3.4,2.7-5c1.8-3.4,3.6-6.7,5.4-10.1c0.1-0.2,0.2-0.3,0.3-0.6C291,427.9,260.9,443.5,260.6,443.8z M291.5,426.6
		c-0.2-0.1-0.4-0.1-0.5-0.2c-5.1-1-10.2-2-15.3-3c-0.4-0.1-0.6,0-0.9,0.3c-4.8,6.2-9.5,12.4-14.3,18.5c-0.1,0.1-0.2,0.2-0.2,0.4
		c0,0,0,0,0.1,0.1C270.7,437.4,281,432.1,291.5,426.6z M264.9,379.5c0,0-0.1,0-0.1,0c0,0.1-0.1,0.3-0.1,0.4c-0.6,3.3-1.2,6.7-1.8,10
		c-0.3,1.6-0.7,3.2-0.5,4.8c0,0.3,0,0.5,0,0.8c0,3,0.1,6,0.1,9c0,0.7,0,1.3,0,2c1,0.5,11.1,3.6,11.6,3.5
		C271.1,399.8,268,389.7,264.9,379.5z M277,465.2c0,0.2,0,0.4,0.1,0.6c0.7,4.2,1.4,8.3,2,12.5c0,0.3,0.1,0.6,0,0.9
		c-0.9,3.8-1.8,7.6-2.7,11.4c-0.2,0.9-0.4,1.8-0.6,2.7c0.2-0.2,0.3-0.4,0.5-0.6c0.5-0.8,0.9-1.5,1.4-2.3c2.4-4,4.8-8,7.2-12
		c0.2-0.3,0.3-0.7,0.4-1c0.1-0.4,0.1-0.7,0.2-1.1c0.8-4.9,1.7-9.9,2.5-14.8c0-0.1,0-0.2,0-0.4C284.2,462.5,280.6,463.8,277,465.2z
		 M333,385c0-0.2,0-0.3,0-0.3c-2.8-10.6-5.5-21.2-8.3-31.8c0,0,0,0,0,0c0,0,0,0,0,0c0,0,0,0-0.1,0c-0.1,0.3-0.1,0.5-0.2,0.8
		c-0.6,3.3-1.2,6.6-1.9,9.9c-0.7,3.5-1.3,7-2,10.5c-0.1,0.5,0,0.7,0.4,1c3.3,2.7,6.6,5.5,9.9,8.2C331.6,383.8,332.3,384.4,333,385z
		 M289.4,342.1c0,0,0,0.1,0,0.1c7.6,3.3,15.2,6.6,22.9,9.9c-0.6-3.1-1.3-6.2-1.9-9.2c-0.6-3-1.2-6-1.9-9.1c-0.2,0.1-0.3,0.2-0.4,0.3
		c-2.2,2-4.4,3.9-6.7,5.9c-0.3,0.2-0.5,0.4-0.9,0.4c-3.4,0.5-6.7,1-10.1,1.5C290.2,342,289.8,342,289.4,342.1z M211.8,443.1
		c0,0,0,0.1,0.1,0.1c8.7-2.7,17.4-5.3,26.2-8.1c-3.2-3.1-6.4-6.1-9.6-9.1C222.9,431.8,217.3,437.4,211.8,443.1z M333.6,387.6
		c-0.2,0.2-0.3,0.3-0.4,0.4c-0.9,1.1-1.8,2.2-2.7,3.4c-1.2,1.5-2.4,3-3.6,4.5c-0.2,0.2-0.3,0.4-0.2,0.6c0.3,1,0.6,2,1,3
		c1.3,3.2,2.6,6.4,4,9.6c2.1,5.1,4.3,10.3,6.4,15.4c0.1,0.2,0.2,0.4,0.2,0.5c0,0,0.1,0,0.1,0C336.9,412.6,335.3,400.1,333.6,387.6z
		 M284,444.3c4,4.2,8.1,8.5,12.1,12.7c0,0,0.1,0,0.1-0.1c-1.2-9.6-2.4-19.1-3.6-28.8C292.3,428.5,284.5,443.2,284,444.3z
		 M297.1,455.5c2.2-9.5,4.3-19,6.4-28.5c-0.7-0.1-9.6-0.1-10.1,0C293.6,428,296.9,455,297.1,455.5z M225.2,449.7
		c-0.8-0.4-14.1-4.6-14.6-4.6c1.4,7,2.7,13.9,4.1,20.9c0,0,0.1,0,0.1,0C218.2,460.6,221.7,455.1,225.2,449.7z M304.9,373.5
		c0,0,0,0.1-0.1,0.1c6.8,7.1,13.6,14.2,20.4,21.3c0,0,0.1,0,0.1-0.1c-1.9-6.5-3.8-13-5.7-19.6C314.7,374.7,309.8,374.1,304.9,373.5z
		 M269.1,360.4c0,0,0,0.1,0.1,0.1c6.4-1.3,12.8-2.7,19.3-4c-0.5-4.5-0.9-9-1.4-13.6C281,348.8,275,354.6,269.1,360.4z M215.2,467.4
		c1.8,1.4,3.5,2.8,5.2,4.1c1.7,1.4,3.4,2.7,5.1,4.1c1.7,1.3,3.4,2.7,5.1,4c-1.2-6.6-2.3-13.2-3.6-19.9
		C223.1,462.3,219.2,464.8,215.2,467.4z M267.8,361.8c-0.8,4.7-1.6,9.4-2.5,14c0,0,0.1,0.1,0.1,0.1c7.2-6,14.3-12,21.5-17.9
		c0,0,0-0.1-0.1-0.1C280.6,359.1,274.2,360.5,267.8,361.8z M231.6,479.3c0,0,0.1,0,0.1,0c3.1-5.7,6.3-11.4,9.4-17.1
		c-4.4-0.9-8.8-1.8-13.2-2.7C229.2,466.2,230.4,472.8,231.6,479.3z M211.6,444.3c0.2,0.1,0.3,0.2,0.4,0.2c4.4,1.4,8.9,2.8,13.3,4.2
		c0.3,0.1,0.5,0.1,0.8-0.2c0.8-0.9,1.7-1.8,2.5-2.7c2.8-3,5.6-6,8.4-9c0.1-0.1,0.2-0.2,0.3-0.4C228.7,439,220.2,441.6,211.6,444.3z
		 M257.6,444.5c0,0,0.1,0,0.1,0.1c5.4-7,10.8-14,16.2-21c0,0,0-0.1-0.1-0.1c-3.7,0.3-7.3,0.6-11,0.9
		C261,431.1,259.3,437.8,257.6,444.5z M276.4,411.4c0,0,0,0.1-0.1,0.1c5.3,4.6,10.7,9.2,16.1,13.9c0-3.8,0-7.5,0-11.3
		c-1.5-0.3-2.4-1.3-2.7-2.7C285.3,411.4,280.8,411.4,276.4,411.4z M305.9,405.9c-3.4,1.4-6.6,2.8-9.8,4.2c0.2,1.2,0,2.2-0.8,3.1
		c0.6,1.1,8.3,11.5,8.6,11.8C304.5,418.6,305.2,412.3,305.9,405.9z M288.7,396.8c-4.3,4.6-8.4,9-12.7,13.6c4.7,0,9.2,0,13.7,0
		c0.2-1.1,0.9-2,1.9-2.5C290.7,404.2,289.7,400.6,288.7,396.8z M313.3,352.3c3.5-0.8,6.9-1.5,10.4-2.2c-4.7-5.2-9.2-10.3-13.8-15.4
		c0,0-0.1,0-0.1,0.1C310.9,340.6,312.1,346.4,313.3,352.3z M229.4,425.6c3.2,3.1,6.3,6,9.4,8.9c0.7-1.2,6.1-12.9,6.2-13.4
		C239.8,422.6,234.6,424.1,229.4,425.6z M326.4,395.1c2.4-2.9,4.6-5.8,6.9-8.7c-4.1-3.4-8.2-6.8-12.3-10.1c0,0-0.1,0.1-0.1,0.1
		C322.7,382.6,324.5,388.8,326.4,395.1z M262.6,407.7c0.1,5,0.2,10,0.3,14.9c0,0,0.1,0,0.1,0c3.7-3.8,7.3-7.6,11-11.4
		C273.5,410.9,263.1,407.7,262.6,407.7z M289.8,396.9c0,0-0.1,0.1-0.1,0.1c0.9,3.6,1.9,7.1,2.8,10.7c1.3,0,2.4,0.5,3.1,1.6
		c3.2-1.4,6.4-2.7,9.7-4.1C300.1,402.3,295,399.6,289.8,396.9z M275.5,412c0,3.6,0,7.1,0,10.5c5.2,1,10.4,2,15.6,3
		c0,0,0-0.1,0.1-0.1C285.9,421,280.7,416.5,275.5,412z M301,369.5c0,0,0.1-0.1,0.1-0.1c-4.2-8.2-8.4-16.4-12.7-24.5
		c0-0.1-0.1-0.2-0.2-0.2c0,0,0,0-0.1,0c0,0,0,0-0.1,0c0.1,0.6,0.1,1.2,0.2,1.8c0.3,3,0.6,6.1,0.9,9.1c0.1,0.7,0.3,1.3,0.8,1.8
		c3,3.3,6.1,6.7,9.1,10C299.8,368.1,300.4,368.8,301,369.5z M303.2,425.9c-3-4.1-5.9-8.1-8.8-12.1c-0.4,0.1-0.7,0.2-1,0.3
		c0,3.9,0,7.8,0,11.8C296.7,425.9,299.9,425.9,303.2,425.9z M227.6,400.8c0,0.2,0,0.3,0,0.5c0.4,2.9,0.9,5.7,1.3,8.6
		c0.1,0.6,0.3,1,0.8,1.4c0.3,0.2,0.5,0.3,0.9,0.1c3.1-1.1,6.2-2.3,9.3-3.4c0.1,0,0.2-0.1,0.4-0.2C236,405.4,231.8,403.1,227.6,400.8
		z M274.5,412.3c0,0-0.1,0-0.1-0.1c-1.2,1.2-2.4,2.4-3.5,3.7c-1.2,1.2-2.4,2.5-3.6,3.7c-1.2,1.2-2.4,2.4-3.5,3.7
		c3-0.1,10.4-0.7,10.7-0.9C274.5,419,274.5,415.6,274.5,412.3z M216.2,465.5C216.2,465.5,216.2,465.6,216.2,465.5
		c0.2,0,0.4-0.1,0.6-0.2c3.2-2.1,6.4-4.2,9.6-6.3c0.4-0.3,0.5-0.6,0.4-1c-0.4-2.2-0.7-4.4-1.1-6.7c0-0.2-0.1-0.3-0.2-0.6
		C222.4,455.8,219.3,460.6,216.2,465.5z M241.3,408.9c-1.8,2.6-3.4,5.1-5.1,7.7c3,1,5.9,2,9,3C243.9,416,242.6,412.5,241.3,408.9z
		 M229.8,424.4c0.8-0.1,13.9-3.8,14.3-4.1c-2.9-1-5.7-1.9-8.6-2.9C233.7,419.8,231.8,422.1,229.8,424.4z M235.3,416.2
		c1.6-2.4,3.2-4.8,4.8-7.2c0,0-0.1-0.1-0.1-0.1c-3.1,1.1-6.1,2.2-9.3,3.4C232.4,413.6,233.8,414.9,235.3,416.2z"/>
</g>
</svg>
