<?xml version="1.0" encoding="utf-8"?>
<!-- Generator: Adobe Illustrator 21.0.2, SVG Export Plug-In . SVG Version: 6.00 Build 0)  -->

    <svg version="1.1" id="Layer_1" xmlns="http://www.w3.org/2000/svg" xmlns:xlink="http://www.w3.org/1999/xlink" x="0px" y="0px"
	 viewBox="0 0 900 600" style="enable-background:new 0 0 900 600;" xml:space="preserve">
      <style>
        .floor,.deck{fill:#673c1a}
        .frame{fill:#ad723d}
        .back-frame{fill:#945f2d}
        .roof-left{fill:#cc9f64}
        .roof-right{fill:#90672f}
        .roof-back{fill:#5b441b}
        .roof-line,.door-fill{fill:#452b0a}
        .shadow{fill:rgba(188,93,35,.65)}
        .door-frame{fill:#975010}
        .dark-wood{fill:#db8629}
        .light-wood{fill:#e88e2e}
        .wood-line{stroke:#bc5d23;stroke-width:2;}
        .deck-top{fill:#744D2E;}
        .railing{fill:#7c451b}
      </style>
      <g fill="none" fill-rule="evenodd">
        <!--    Front of House wood panels    -->
        <path class="dark-wood" d="M243 78 L349 203 L117 210 L243 78"/>
        <path class="wood-line" d="M349 203 L117 210"/>
        <path class="light-wood" d="M349 203 L117 210 L80 248 L80 265 L417 265 L417 248 L385 248 L347 203"/>
        <path class="wood-line" d="M80 265 L417 265"/>
        <path class="dark-wood" d="M80 265 L417 265 L418 323 L80 315 L80 265"/>
        <path class="wood-line" d="M417 323 L80 315"/>
        <path class="light-wood" d="M417 323 L80 315 L80 371 L418 360 L418 323"/>
        <path class="wood-line" d="M80 371 L418 360"/>
        <path class="dark-wood" d="M80 371 L418 360 L418 433 L80 435 L80 371"/>
        <path class="wood-line" d="M418 433 L80 435"/>
        <path class="light-wood" d="M418 433 L80 435 L80 482 L419 495 L418 433"/>
        <path class="wood-line" d="M80 482 L419 495"/>
        <path class="dark-wood" d="M80 482 L419 495 L419 552 L80 553 L80 482"/>
        <!--    Side of House wood panels    -->
        <path class="light-wood" d="M467 248 L480 248 L500 232 L500 246 L466 258 L467 248"/>
        <path class="wood-line" d="M500 246 L466 258"/>
        <path class="dark-wood" d="M500 246 L466 258 L463 313 L497 294 L500 246"/>
        <path class="wood-line" d="M463 313 L497 294"/>
        <path class="light-wood" d="M463 313 L497 294 L493 341 L460 353 L463 313"/>
        <path class="wood-line" d="M493 341 L460 353"/>
        <path class="dark-wood" d="M493 341 L460 353 L457 406 L490 381 L493 341"/>
        <path class="wood-line" d="M457 406 L490 381"/>
        <path class="light-wood" d="M457 406 L490 381 L484 435 L455 455 L457 406"/>
        <path class="wood-line" d="M485 435 L454 455"/>
        <path class="dark-wood" d="M485 435 L454 455 L452 495 L482 480 L485 435"/>
        <path class="wood-line" d="M452 495 L482 480"/>
        <path class="light-wood" d="M452 495 L482 480 L478 526 L450 536 L452 495"/>
        <path class="wood-line" d="M478 526 L450 536"/>
        <path class="dark-wood" d="M478 526 L450 536 L448 568 L475 546 L478 526"/>

        <path class="shadow" d="M80 553 L80 248 L243 78 L385 248 L417 248 L419 552 L410 256 L370 256 L243 88 L90 249 L80 553" />
        <path class="floor" d="M50 587 L450 587 L493 546 L493 535 L483 535 L483 540 L441 573 L50 573 L50 587"/>
        <path class="deck-top" d="M441 573 L483 540 L483 535 L493 535 L843 535 L800 573 L441 573"/>
        <path class="deck" d="M441 573 L450 587 L800 587 L843 546 L843 535 L791 573 L441 573"/>
        <path class="frame" d="M58 573 L36 248 L80 248 L80 553 L419 552 L417 248 L457 248 L441 573 L58 573"/>
        <path class="back-frame" d="M441 573 L457 248 L467 248 L448 568 L441 573"/>
        <path class="back-frame" d="M483 540 L519 218 L500 232 L475 546 L483 540"/>

        <path class="roof-left" d="M80 248 L243 78 L243 13 L8 248 L80 248"/>
        <path class="roof-right" d="M243 78 L243 13 L480 248 L385 248 L243 78"/>
        <path class="roof-back" d="M243 13 L360 22 L536 205 L480 248"/>
        <path class="roof-line" d="M373 36 L280 34 L376 39 L373 36"/>
        <path class="roof-line" d="M393 56 L320 64 L396 59 L393 56"/>
        <path class="roof-line" d="M415 80 L350 94 L419 84 L415 80"/>
        <path class="roof-line" d="M439 104 L380 122 L443 108 L439 104"/>
        <path class="roof-line" d="M462 128 L403 150 L466 132 L462 128"/>
        <path class="roof-line" d="M486 153 L433 180 L490 157 L486 153"/>
        <path class="roof-line" d="M515 183 L463 214 L519 187 L515 183"/>
        <path class="door-frame" d="M112 553 L91 312 L245 310 L233 553 L226 553 L229 324 L108 325 L124 553 L112 553"/>
        <path class="door-fill" d="M124 553 L226 553 L229 324 L108 325 L124 553"/>
      </g>
    </svg>
